<svg width="14" height="18" viewBox="0 0 14 18" fill="none" xmlns="http://www.w3.org/2000/svg">
<path d="M13.6922 5.43281L9.31719 1.05781C9.2591 0.999791 9.19015 0.953782 9.11428 0.922415C9.03841 0.891047 8.9571 0.874936 8.875 0.875H1.375C1.04348 0.875 0.725537 1.0067 0.491116 1.24112C0.256696 1.47554 0.125 1.79348 0.125 2.125V15.875C0.125 16.2065 0.256696 16.5245 0.491116 16.7589C0.725537 16.9933 1.04348 17.125 1.375 17.125H12.625C12.9565 17.125 13.2745 16.9933 13.5089 16.7589C13.7433 16.5245 13.875 16.2065 13.875 15.875V5.875C13.8751 5.7929 13.859 5.71159 13.8276 5.63572C13.7962 5.55985 13.7502 5.4909 13.6922 5.43281ZM9.5 3.00859L11.7414 5.25H9.5V3.00859ZM12.625 15.875H1.375V2.125H8.25V5.875C8.25 6.04076 8.31585 6.19973 8.43306 6.31694C8.55027 6.43415 8.70924 6.5 8.875 6.5H12.625V15.875ZM10.125 9.625C10.125 9.79076 10.0592 9.94973 9.94194 10.0669C9.82473 10.1842 9.66576 10.25 9.5 10.25H4.5C4.33424 10.25 4.17527 10.1842 4.05806 10.0669C3.94085 9.94973 3.875 9.79076 3.875 9.625C3.875 9.45924 3.94085 9.30027 4.05806 9.18306C4.17527 9.06585 4.33424 9 4.5 9H9.5C9.66576 9 9.82473 9.06585 9.94194 9.18306C10.0592 9.30027 10.125 9.45924 10.125 9.625ZM10.125 12.125C10.125 12.2908 10.0592 12.4497 9.94194 12.5669C9.82473 12.6842 9.66576 12.75 9.5 12.75H4.5C4.33424 12.75 4.17527 12.6842 4.05806 12.5669C3.94085 12.4497 3.875 12.2908 3.875 12.125C3.875 11.9592 3.94085 11.8003 4.05806 11.6831C4.17527 11.5658 4.33424 11.5 4.5 11.5H9.5C9.66576 11.5 9.82473 11.5658 9.94194 11.6831C10.0592 11.8003 10.125 11.9592 10.125 12.125Z" fill="#696969"/>
</svg>
