<svg width="18" height="14" viewBox="0 0 18 14" fill="none" xmlns="http://www.w3.org/2000/svg">
<path d="M16.5 0.75H1.5C1.16848 0.75 0.850537 0.881696 0.616116 1.11612C0.381696 1.35054 0.25 1.66848 0.25 2V12C0.25 12.3315 0.381696 12.6495 0.616116 12.8839C0.850537 13.1183 1.16848 13.25 1.5 13.25H16.5C16.8315 13.25 17.1495 13.1183 17.3839 12.8839C17.6183 12.6495 17.75 12.3315 17.75 12V2C17.75 1.66848 17.6183 1.35054 17.3839 1.11612C17.1495 0.881696 16.8315 0.75 16.5 0.75ZM16.5 12H1.5V2H16.5V12ZM15.25 7C15.25 7.16576 15.1842 7.32473 15.0669 7.44194C14.9497 7.55915 14.7908 7.625 14.625 7.625H3.375C3.20924 7.625 3.05027 7.55915 2.93306 7.44194C2.81585 7.32473 2.75 7.16576 2.75 7C2.75 6.83424 2.81585 6.67527 2.93306 6.55806C3.05027 6.44085 3.20924 6.375 3.375 6.375H14.625C14.7908 6.375 14.9497 6.44085 15.0669 6.55806C15.1842 6.67527 15.25 6.83424 15.25 7ZM15.25 4.5C15.25 4.66576 15.1842 4.82473 15.0669 4.94194C14.9497 5.05915 14.7908 5.125 14.625 5.125H3.375C3.20924 5.125 3.05027 5.05915 2.93306 4.94194C2.81585 4.82473 2.75 4.66576 2.75 4.5C2.75 4.33424 2.81585 4.17527 2.93306 4.05806C3.05027 3.94085 3.20924 3.875 3.375 3.875H14.625C14.7908 3.875 14.9497 3.94085 15.0669 4.05806C15.1842 4.17527 15.25 4.33424 15.25 4.5ZM4.625 9.5C4.625 9.66576 4.55915 9.82473 4.44194 9.94194C4.32473 10.0592 4.16576 10.125 4 10.125H3.375C3.20924 10.125 3.05027 10.0592 2.93306 9.94194C2.81585 9.82473 2.75 9.66576 2.75 9.5C2.75 9.33424 2.81585 9.17527 2.93306 9.05806C3.05027 8.94085 3.20924 8.875 3.375 8.875H4C4.16576 8.875 4.32473 8.94085 4.44194 9.05806C4.55915 9.17527 4.625 9.33424 4.625 9.5ZM12.125 9.5C12.125 9.66576 12.0592 9.82473 11.9419 9.94194C11.8247 10.0592 11.6658 10.125 11.5 10.125H6.5C6.33424 10.125 6.17527 10.0592 6.05806 9.94194C5.94085 9.82473 5.875 9.66576 5.875 9.5C5.875 9.33424 5.94085 9.17527 6.05806 9.05806C6.17527 8.94085 6.33424 8.875 6.5 8.875H11.5C11.6658 8.875 11.8247 8.94085 11.9419 9.05806C12.0592 9.17527 12.125 9.33424 12.125 9.5ZM15.25 9.5C15.25 9.66576 15.1842 9.82473 15.0669 9.94194C14.9497 10.0592 14.7908 10.125 14.625 10.125H14C13.8342 10.125 13.6753 10.0592 13.5581 9.94194C13.4408 9.82473 13.375 9.66576 13.375 9.5C13.375 9.33424 13.4408 9.17527 13.5581 9.05806C13.6753 8.94085 13.8342 8.875 14 8.875H14.625C14.7908 8.875 14.9497 8.94085 15.0669 9.05806C15.1842 9.17527 15.25 9.33424 15.25 9.5Z" fill="#696969"/>
</svg>
