<svg width="20" height="21" viewBox="0 0 20 21" fill="none" xmlns="http://www.w3.org/2000/svg">
<g id="Social Icons" clip-path="url(#clip0_2_33094)">
<path id="Vector" d="M10 2.57075C12.6719 2.57075 12.9883 2.58247 14.0391 2.62936C15.0156 2.67234 15.543 2.83644 15.8945 2.97319C16.3594 3.15292 16.6953 3.37173 17.043 3.71947C17.3945 4.07111 17.6094 4.40323 17.7891 4.86818C17.9258 5.21983 18.0898 5.75121 18.1328 6.7241C18.1797 7.77905 18.1914 8.09553 18.1914 10.7641C18.1914 13.4367 18.1797 13.7532 18.1328 14.8042C18.0898 15.781 17.9258 16.3085 17.7891 16.6601C17.6094 17.1251 17.3906 17.4611 17.043 17.8088C16.6914 18.1605 16.3594 18.3754 15.8945 18.5551C15.543 18.6919 15.0117 18.856 14.0391 18.8989C12.9844 18.9458 12.668 18.9575 10 18.9575C7.32813 18.9575 7.01172 18.9458 5.96094 18.8989C4.98438 18.856 4.45703 18.6919 4.10547 18.5551C3.64063 18.3754 3.30469 18.1566 2.95703 17.8088C2.60547 17.4572 2.39063 17.1251 2.21094 16.6601C2.07422 16.3085 1.91016 15.7771 1.86719 14.8042C1.82031 13.7492 1.80859 13.4328 1.80859 10.7641C1.80859 8.09162 1.82031 7.77514 1.86719 6.7241C1.91016 5.7473 2.07422 5.21983 2.21094 4.86818C2.39063 4.40323 2.60938 4.06721 2.95703 3.71947C3.30859 3.36782 3.64063 3.15292 4.10547 2.97319C4.45703 2.83644 4.98828 2.67234 5.96094 2.62936C7.01172 2.58247 7.32813 2.57075 10 2.57075ZM10 0.769531C7.28516 0.769531 6.94531 0.781253 5.87891 0.828139C4.81641 0.875026 4.08594 1.04694 3.45313 1.2931C2.79297 1.55097 2.23438 1.8909 1.67969 2.44963C1.12109 3.00445 0.78125 3.56318 0.523438 4.21959C0.277344 4.85646 0.105469 5.5832 0.0585938 6.64596C0.0117188 7.71653 0 8.05646 0 10.772C0 13.4875 0.0117188 13.8274 0.0585938 14.8941C0.105469 15.9568 0.277344 16.6875 0.523438 17.3204C0.78125 17.9807 1.12109 18.5395 1.67969 19.0943C2.23438 19.6491 2.79297 19.993 3.44922 20.2469C4.08594 20.4931 4.8125 20.665 5.875 20.7119C6.94141 20.7588 7.28125 20.7705 9.99609 20.7705C12.7109 20.7705 13.0508 20.7588 14.1172 20.7119C15.1797 20.665 15.9102 20.4931 16.543 20.2469C17.1992 19.993 17.7578 19.6491 18.3125 19.0943C18.8672 18.5395 19.2109 17.9807 19.4648 17.3243C19.7109 16.6875 19.8828 15.9607 19.9297 14.898C19.9766 13.8313 19.9883 13.4914 19.9883 10.7759C19.9883 8.06037 19.9766 7.72044 19.9297 6.65377C19.8828 5.59102 19.7109 4.86037 19.4648 4.2274C19.2188 3.56318 18.8789 3.00445 18.3203 2.44963C17.7656 1.8948 17.207 1.55097 16.5508 1.297C15.9141 1.05085 15.1875 0.878933 14.125 0.832046C13.0547 0.781253 12.7148 0.769531 10 0.769531Z" fill="white"/>
<path id="Vector_2" d="M10 5.63281C7.16406 5.63281 4.86328 7.93415 4.86328 10.7708C4.86328 13.6074 7.16406 15.9087 10 15.9087C12.8359 15.9087 15.1367 13.6074 15.1367 10.7708C15.1367 7.93415 12.8359 5.63281 10 5.63281ZM10 14.1036C8.16016 14.1036 6.66797 12.6111 6.66797 10.7708C6.66797 8.93049 8.16016 7.43794 10 7.43794C11.8398 7.43794 13.332 8.93049 13.332 10.7708C13.332 12.6111 11.8398 14.1036 10 14.1036Z" fill="white"/>
<path id="Vector_3" d="M16.5391 5.42998C16.5391 6.09421 16 6.62949 15.3398 6.62949C14.6758 6.62949 14.1406 6.0903 14.1406 5.42998C14.1406 4.76576 14.6797 4.23047 15.3398 4.23047C16 4.23047 16.5391 4.76966 16.5391 5.42998Z" fill="white"/>
</g>
<defs>
<clipPath id="clip0_2_33094">
<rect width="20" height="20.0049" fill="white" transform="translate(0 0.769531)"/>
</clipPath>
</defs>
</svg>
