<svg width="18" height="15" viewBox="0 0 18 15" fill="none" xmlns="http://www.w3.org/2000/svg">
<path d="M15.875 0.125H2.125C1.79348 0.125 1.47554 0.256696 1.24112 0.491116C1.0067 0.725537 0.875 1.04348 0.875 1.375V13.875C0.875057 13.9815 0.902339 14.0863 0.954258 14.1793C1.00618 14.2723 1.08101 14.3505 1.17165 14.4065C1.26228 14.4624 1.36572 14.4943 1.47214 14.499C1.57856 14.5038 1.68442 14.4813 1.77969 14.4336L4 13.3234L6.22031 14.4336C6.30714 14.477 6.4029 14.4997 6.5 14.4997C6.5971 14.4997 6.69286 14.477 6.77969 14.4336L9 13.3234L11.2203 14.4336C11.3071 14.477 11.4029 14.4997 11.5 14.4997C11.5971 14.4997 11.6929 14.477 11.7797 14.4336L14 13.3234L16.2203 14.4336C16.3156 14.4813 16.4214 14.5038 16.5279 14.499C16.6343 14.4943 16.7377 14.4624 16.8284 14.4065C16.919 14.3505 16.9938 14.2723 17.0457 14.1793C17.0977 14.0863 17.1249 13.9815 17.125 13.875V1.375C17.125 1.04348 16.9933 0.725537 16.7589 0.491116C16.5245 0.256696 16.2065 0.125 15.875 0.125ZM15.875 12.8641L14.2797 12.0656C14.1929 12.0222 14.0971 11.9996 14 11.9996C13.9029 11.9996 13.8071 12.0222 13.7203 12.0656L11.5 13.1766L9.27969 12.0656C9.19286 12.0222 9.0971 11.9996 9 11.9996C8.9029 11.9996 8.80714 12.0222 8.72031 12.0656L6.5 13.1766L4.27969 12.0656C4.19286 12.0222 4.0971 11.9996 4 11.9996C3.9029 11.9996 3.80714 12.0222 3.72031 12.0656L2.125 12.8641V1.375H15.875V12.8641ZM3.26107 5.75C3.26107 5.58424 3.32692 5.42527 3.44413 5.30806C3.56134 5.19085 3.72031 5.125 3.88607 5.125H14C14.1658 5.125 14.3247 5.19085 14.4419 5.30806C14.5592 5.42527 14.625 5.58424 14.625 5.75C14.625 5.91576 14.5592 6.07473 14.4419 6.19194C14.3247 6.30915 14.1658 6.375 14 6.375H3.88607C3.72031 6.375 3.56134 6.30915 3.44413 6.19194C3.32692 6.07473 3.26107 5.91576 3.26107 5.75ZM3.26107 8.25C3.26107 8.08424 3.32692 7.92527 3.44413 7.80806C3.56134 7.69085 3.72031 7.625 3.88607 7.625H14C14.1658 7.625 14.3247 7.69085 14.4419 7.80806C14.5592 7.92527 14.625 8.08424 14.625 8.25C14.625 8.41576 14.5592 8.57473 14.4419 8.69194C14.3247 8.80915 14.1658 8.875 14 8.875H3.88607C3.72031 8.875 3.56134 8.80915 3.44413 8.69194C3.32692 8.57473 3.26107 8.41576 3.26107 8.25Z" fill="#696969"/>
</svg>
