<svg width="18" height="16" viewBox="0 0 18 16" fill="none" xmlns="http://www.w3.org/2000/svg">
<path d="M8.06252 7C8.06252 6.81458 8.1175 6.63332 8.22052 6.47915C8.32353 6.32498 8.46995 6.20482 8.64126 6.13386C8.81256 6.06291 9.00106 6.04434 9.18292 6.08051C9.36478 6.11669 9.53182 6.20598 9.66293 6.33709C9.79405 6.4682 9.88333 6.63525 9.91951 6.8171C9.95568 6.99896 9.93712 7.18746 9.86616 7.35877C9.7952 7.53007 9.67504 7.67649 9.52087 7.7795C9.3667 7.88252 9.18544 7.9375 9.00002 7.9375C8.75138 7.9375 8.51292 7.83873 8.33711 7.66291C8.16129 7.4871 8.06252 7.24864 8.06252 7ZM5.56252 7.9375C5.74794 7.9375 5.9292 7.88252 6.08337 7.7795C6.23754 7.67649 6.3577 7.53007 6.42866 7.35877C6.49962 7.18746 6.51818 6.99896 6.48201 6.8171C6.44583 6.63525 6.35655 6.4682 6.22543 6.33709C6.09432 6.20598 5.92728 6.11669 5.74542 6.08051C5.56356 6.04434 5.37506 6.06291 5.20376 6.13386C5.03245 6.20482 4.88603 6.32498 4.78302 6.47915C4.68 6.63332 4.62502 6.81458 4.62502 7C4.62502 7.24864 4.72379 7.4871 4.89961 7.66291C5.07542 7.83873 5.31388 7.9375 5.56252 7.9375ZM12.4375 7.9375C12.6229 7.9375 12.8042 7.88252 12.9584 7.7795C13.1125 7.67649 13.2327 7.53007 13.3037 7.35877C13.3746 7.18746 13.3932 6.99896 13.357 6.8171C13.3208 6.63525 13.2315 6.4682 13.1004 6.33709C12.9693 6.20598 12.8023 6.11669 12.6204 6.08051C12.4386 6.04434 12.2501 6.06291 12.0788 6.13386C11.9075 6.20482 11.761 6.32498 11.658 6.47915C11.555 6.63332 11.5 6.81458 11.5 7C11.5 7.24864 11.5988 7.4871 11.7746 7.66291C11.9504 7.83873 12.1889 7.9375 12.4375 7.9375ZM17.125 2V12C17.125 12.3315 16.9933 12.6495 16.7589 12.8839C16.5245 13.1183 16.2065 13.25 15.875 13.25H5.4844L2.93752 15.45L2.93049 15.4555C2.70552 15.6462 2.41997 15.7506 2.12502 15.75C1.9414 15.7496 1.76009 15.7091 1.59377 15.6312C1.37804 15.5315 1.19556 15.3719 1.06812 15.1713C0.940668 14.9707 0.873636 14.7377 0.875021 14.5V2C0.875021 1.66848 1.00672 1.35054 1.24114 1.11612C1.47556 0.881696 1.7935 0.75 2.12502 0.75H15.875C16.2065 0.75 16.5245 0.881696 16.7589 1.11612C16.9933 1.35054 17.125 1.66848 17.125 2ZM15.875 2H2.12502V14.5L4.84143 12.1562C4.95436 12.0566 5.09945 12.0012 5.25002 12H15.875V2Z" fill="#696969"/>
</svg>
