<svg width="18" height="18" viewBox="0 0 18 18" fill="none" xmlns="http://www.w3.org/2000/svg">
<path d="M17.1208 4.4793C17.082 4.38321 17.0203 4.29798 16.9413 4.23093C16.8622 4.16388 16.7681 4.117 16.6669 4.09431C16.5658 4.07162 16.4606 4.07381 16.3605 4.10068C16.2604 4.12754 16.1683 4.17829 16.0921 4.24857L12.8631 7.228L11.4826 6.93158L11.1861 5.55122L14.1659 2.32264C14.2362 2.24645 14.2869 2.15434 14.3138 2.05423C14.3407 1.95412 14.3429 1.84898 14.3202 1.74783C14.2975 1.64669 14.2506 1.55256 14.1835 1.47351C14.1165 1.39446 14.0313 1.33286 13.9352 1.29398C13.0594 0.939747 12.11 0.805997 11.1704 0.904485C10.2308 1.00297 9.32976 1.33068 8.54647 1.85882C7.76319 2.38696 7.12162 3.09937 6.67813 3.93345C6.23463 4.76752 6.0028 5.69774 6.00298 6.64237C6.00195 7.44004 6.16561 8.22934 6.48372 8.96086L1.65952 13.1316C1.6475 13.1412 1.63628 13.1524 1.62507 13.1628C1.14418 13.6436 0.874023 14.2958 0.874023 14.9758C0.874023 15.3125 0.940349 15.6459 1.06921 15.957C1.19808 16.268 1.38696 16.5507 1.62507 16.7888C1.86318 17.0268 2.14586 17.2157 2.45696 17.3445C2.76807 17.4734 3.10151 17.5397 3.43825 17.5397C4.11832 17.5397 4.77055 17.2696 5.25143 16.7888C5.26185 16.7783 5.27306 16.7663 5.28268 16.7551L9.45308 11.9299C10.3316 12.3154 11.2924 12.4759 12.2485 12.3966C13.2046 12.3173 14.1259 12.0009 14.9289 11.4759C15.7318 10.9509 16.3912 10.234 16.8473 9.39003C17.3033 8.54605 17.5416 7.60166 17.5407 6.64237C17.5419 5.90098 17.3993 5.1664 17.1208 4.4793ZM11.7718 11.1287C11.0131 11.1277 10.267 10.9348 9.60291 10.5679C9.47424 10.4969 9.32506 10.4722 9.18036 10.498C9.03566 10.5238 8.90423 10.5986 8.80809 10.7097L4.32922 15.8963C4.08684 16.1265 3.76411 16.253 3.42982 16.2487C3.09553 16.2444 2.77614 16.1098 2.53975 15.8734C2.30335 15.637 2.16865 15.3177 2.16437 14.9834C2.16009 14.6492 2.28657 14.3265 2.51684 14.0841L7.69999 9.60657C7.81137 9.5104 7.88626 9.37883 7.91208 9.23397C7.9379 9.08911 7.91309 8.93977 7.8418 8.81104C7.4332 8.07211 7.24144 7.23288 7.28858 6.38983C7.33572 5.54679 7.61983 4.73416 8.10826 4.04537C8.59669 3.35657 9.2696 2.81958 10.0496 2.49613C10.8297 2.17267 11.6852 2.07588 12.5178 2.21689L10.0179 4.92553C9.94839 5.00098 9.89796 5.09202 9.87092 5.191C9.84387 5.28998 9.84098 5.39401 9.8625 5.49434L10.316 7.60373C10.3419 7.72438 10.4022 7.83497 10.4894 7.92222C10.5767 8.00948 10.6873 8.06969 10.808 8.09563L12.9192 8.54907C13.0195 8.57059 13.1236 8.56771 13.2226 8.54066C13.3216 8.51361 13.4126 8.4632 13.4881 8.39365L16.197 5.89411C16.305 6.53743 16.2716 7.19654 16.099 7.82562C15.9264 8.45471 15.6188 9.03865 15.1977 9.53683C14.7765 10.035 14.2519 10.4355 13.6603 10.7104C13.0686 10.9853 12.4242 11.1281 11.7718 11.1287Z" fill="#696969"/>
</svg>
