<svg width="18" height="17" viewBox="0 0 18 17" fill="none" xmlns="http://www.w3.org/2000/svg">
<path d="M17.4999 13.6946L10.6678 1.82974C10.4971 1.53906 10.2534 1.29803 9.9608 1.13057C9.66823 0.9631 9.33697 0.875 8.99986 0.875C8.66275 0.875 8.33149 0.9631 8.03892 1.13057C7.74635 1.29803 7.50262 1.53906 7.33189 1.82974L0.499862 13.6946C0.335593 13.9757 0.249023 14.2955 0.249023 14.6211C0.249023 14.9468 0.335593 15.2666 0.499862 15.5477C0.668401 15.8402 0.911713 16.0825 1.20483 16.2498C1.49795 16.4172 1.83032 16.5036 2.16783 16.5001H15.8319C16.1691 16.5033 16.5012 16.4168 16.794 16.2494C17.0868 16.0821 17.3299 15.8399 17.4983 15.5477C17.6628 15.2667 17.7496 14.947 17.7499 14.6214C17.7502 14.2957 17.6639 13.9759 17.4999 13.6946ZM16.4163 14.9219C16.3567 15.0235 16.2712 15.1075 16.1685 15.1651C16.0658 15.2228 15.9496 15.2521 15.8319 15.2501H2.16783C2.05008 15.2521 1.9339 15.2228 1.83121 15.1651C1.72852 15.1075 1.64302 15.0235 1.58346 14.9219C1.52951 14.8306 1.50105 14.7264 1.50105 14.6204C1.50105 14.5143 1.52951 14.4101 1.58346 14.3188L8.41549 2.45396C8.47625 2.35284 8.56214 2.26917 8.66482 2.21108C8.7675 2.153 8.88346 2.12247 9.00142 2.12247C9.11939 2.12247 9.23535 2.153 9.33803 2.21108C9.4407 2.26917 9.5266 2.35284 9.58736 2.45396L16.4194 14.3188C16.4729 14.4104 16.5008 14.5147 16.5002 14.6208C16.4997 14.7269 16.4707 14.8309 16.4163 14.9219ZM8.37486 10.2501V7.12505C8.37486 6.95929 8.44071 6.80032 8.55792 6.68311C8.67513 6.5659 8.8341 6.50005 8.99986 6.50005C9.16562 6.50005 9.32459 6.5659 9.4418 6.68311C9.55901 6.80032 9.62486 6.95929 9.62486 7.12505V10.2501C9.62486 10.4158 9.55901 10.5748 9.4418 10.692C9.32459 10.8092 9.16562 10.8751 8.99986 10.8751C8.8341 10.8751 8.67513 10.8092 8.55792 10.692C8.44071 10.5748 8.37486 10.4158 8.37486 10.2501ZM9.93736 13.0626C9.93736 13.248 9.88238 13.4292 9.77936 13.5834C9.67635 13.7376 9.52993 13.8577 9.35863 13.9287C9.18732 13.9996 8.99882 14.0182 8.81696 13.982C8.63511 13.9459 8.46806 13.8566 8.33695 13.7255C8.20584 13.5944 8.11655 13.4273 8.08038 13.2454C8.0442 13.0636 8.06277 12.8751 8.13372 12.7038C8.20468 12.5325 8.32484 12.3861 8.47901 12.283C8.63319 12.18 8.81444 12.1251 8.99986 12.1251C9.2485 12.1251 9.48696 12.2238 9.66277 12.3996C9.83859 12.5755 9.93736 12.8139 9.93736 13.0626Z" fill="#696969"/>
</svg>
